<?xml version="1.0" encoding="UTF-8" standalone="no"?>
<svg viewBox="0 0 89 89"
 xmlns="http://www.w3.org/2000/svg" xmlns:xlink="http://www.w3.org/1999/xlink"  version="1.2" baseProfile="tiny">
<title>Qt SVG Document</title>
<desc>Generated with Qt</desc>
<defs>
</defs>
<g fill="none" stroke="black" stroke-width="1" fill-rule="evenodd" stroke-linecap="square" stroke-linejoin="bevel" >

<g fill="param(fill)" fill-opacity="param(fill-opacity)" stroke="param(outline)" stroke-opacity="param(outline-opacity) 1" stroke-width="param(outline-width)"   transform="matrix(1,0,0,1,0,0)"
font-family="MS Shell Dlg 2" font-size="8.3" font-weight="400" font-style="normal" 
>
<path vector-effect="none" fill-rule="evenodd" d="M44.5,76.56 L44.6281,76.9297 L44.6793,76.918 L44.7303,76.9054 L44.781,76.8919 L44.8315,76.8775 L44.8818,76.8623 L44.9318,76.8462 L44.9815,76.8292 L45.0309,76.8114 L45.08,76.7927 L45.1287,76.7731 L45.1771,76.7527 L45.2251,76.7315 L45.2728,76.7094 L45.3201,76.6865 L45.3669,76.6628 L45.4134,76.6383 L45.4594,76.6129 L45.5049,76.5868 L45.55,76.5599 L45.5947,76.5322 L45.6388,76.5038 L45.6824,76.4745 L45.7256,76.4445 L45.7681,76.4138 L45.8102,76.3824 L45.8517,76.3502 L45.8926,76.3173 L45.933,76.2837 L45.9727,76.2493 L46.0119,76.2143 L46.0505,76.1787 L46.0884,76.1423 L46.1257,76.1053 L46.1623,76.0677 L46.1983,76.0295 L46.2336,75.9906 L46.2682,75.9511 L46.3021,75.911 L46.3354,75.8703 L46.3679,75.8291 L46.3997,75.7873 L46.4307,75.7449 L46.461,75.702 L46.4906,75.6586 L46.5194,75.6147 L46.5475,75.5703 L46.5747,75.5254 L46.6012,75.4801 L46.6269,75.4343 L46.6518,75.388 L46.6759,75.3413 L46.6991,75.2943 L46.7216,75.2468 L46.7432,75.1989 L46.764,75.1507 L46.7839,75.1021 L46.803,75.0531 L46.8212,75.0039 L46.8386,74.9543 L46.8551,74.9045 L46.8707,74.8543 L46.8855,74.8039 L46.8994,74.7533 L46.9124,74.7024 L46.9245,74.6513 L46.9358,74.6 L46.9461,74.5485 L46.9555,74.4968 L46.9641,74.445 L46.9717,74.3931 L46.9784,74.341 L46.9842,74.2888 L46.9892,74.2365 L46.9932,74.1841 L46.9963,74.1317 L46.9984,74.0792 L46.9997,74.0267 L47.0001,73.9742 L46.9995,73.9217 L46.998,73.8692 L46.9956,73.8167 L46.9923,73.7643 L46.9881,73.7119 L46.983,73.6597 L47.52,73.54 L46.9652,73.5622 L46.9567,73.5102 L46.9474,73.4585 L46.9372,73.4069 L46.9261,73.3555 L46.9141,73.3043 L46.9012,73.2533 L46.8874,73.2026 L46.8727,73.1521 L46.8571,73.1019 L46.8407,73.0519 L46.8234,73.0022 L46.8053,72.9529 L46.7863,72.9039 L46.7664,72.8552 L46.7457,72.8068 L46.7242,72.7589 L46.7018,72.7113 L46.6786,72.6641 L46.6546,72.6173 L46.6297,72.5709 L46.6041,72.525 L46.5777,72.4796 L46.5505,72.4346 L46.5225,72.39 L46.4937,72.346 L46.4642,72.3025 L46.4339,72.2595 L46.4029,72.2171 L46.3711,72.1751 L46.3386,72.1338 L46.3054,72.093 L46.2715,72.0528 L46.2369,72.0132 L46.2016,71.9742 L46.1657,71.9358 L46.1291,71.8981 L46.0918,71.861 L46.0539,71.8246 L46.0153,71.7888 L45.9762,71.7537 L45.9364,71.7193 L45.8961,71.6856 L45.8551,71.6525 L45.8136,71.6203 L45.7716,71.5887 L45.729,71.5579 L45.6858,71.5278 L45.6422,71.4985 L45.598,71.4699 L45.5534,71.4421 L45.5082,71.4151 L45.4627,71.3889 L45.4166,71.3635 L45.3701,71.3389 L45.3233,71.3151 L45.276,71.2921 L45.2283,71.27 L45.1802,71.2486 L45.1318,71.2282 L45.083,71.2085 L45.0338,71.1897 L44.9844,71.1718 L44.9347,71.1548 L44.8846,71.1386 L44.8343,71.1233 L44.7838,71.1088 L44.7329,71.0953 L44.6819,71.0826 L44.6307,71.0708 L44.5792,71.06 L44.5276,71.05 L44.4758,71.0409 L44.5,70.52 L44.3786,71.0213 L44.3267,71.0156 L44.2748,71.0107 L44.2227,71.0068 L44.1707,71.0037 L44.1185,71.0015 L44.0664,71.0003 L44.0142,70.9999 L43.962,71.0005 L43.9099,71.0019 L43.8577,71.0043 L43.8057,71.0075 L43.7537,71.0117 L43.7017,71.0167 L43.6499,71.0227 L43.5982,71.0295 L43.5466,71.0373 L43.4951,71.0459 L43.4438,71.0554 L43.3927,71.0658 L43.3417,71.0771 L43.291,71.0892 L43.2405,71.1023 L43.1902,71.1162 L43.1401,71.1309 L43.0904,71.1466 L43.0409,71.163 L42.9917,71.1804 L42.9428,71.1986 L42.8942,71.2176 L42.8459,71.2375 L42.798,71.2582 L42.7505,71.2797 L42.7034,71.302 L42.6566,71.3252 L42.6102,71.3491 L42.5643,71.3739 L42.5188,71.3994 L42.4738,71.4258 L42.4292,71.4528 L42.3851,71.4807 L42.3415,71.5093 L42.2983,71.5387 L42.2557,71.5688 L42.2136,71.5997 L42.1721,71.6312 L42.1311,71.6635 L42.0907,71.6965 L42.0508,71.7302 L42.0116,71.7645 L41.9729,71.7996 L41.9348,71.8353 L41.8974,71.8716 L41.8606,71.9086 L41.8245,71.9462 L41.789,71.9845 L41.7541,72.0233 L41.72,72.0627 L41.6865,72.1028 L41.6537,72.1434 L41.6217,72.1845 L41.5903,72.2262 L41.5597,72.2685 L41.5298,72.3112 L41.5007,72.3545 L41.4723,72.3983 L41.4446,72.4425 L41.4178,72.4873 L41.3917,72.5324 L41.3664,72.5781 L41.3418,72.6241 L41.3181,72.6706 L41.2952,72.7175 L41.2731,72.7648 L41.2519,72.8124 L41.2314,72.8604 L41.2118,72.9087 L41.193,72.9574 L41.1751,73.0064 L41.158,73.0557 L41.1418,73.1053 L41.1264,73.1552 L41.1119,73.2053 L41.0982,73.2556 L41.0855,73.3062 L41.0736,73.357 L41.0626,73.408 L41.48,73.54 L41.0358,73.5162 L41.0282,73.5681 L41.0215,73.6201 L41.0157,73.6721 L41.0108,73.7243 L41.0068,73.7766 L41.0037,73.8289 L41.0016,73.8813 L41.0003,73.9337 L40.9999,73.9861 L41.0005,74.0385 L41.002,74.0909 L41.0043,74.1432 L41.0076,74.1955 L41.0118,74.2478 L41.0169,74.2999 L41.0229,74.352 L41.0298,74.4039 L41.0376,74.4558 L41.0463,74.5074 L41.0559,74.559 L41.0664,74.6103 L41.0778,74.6615 L41.0901,74.7124 L41.1032,74.7632 L41.1173,74.8137 L41.1322,74.8639 L41.1479,74.9139 L41.1646,74.9636 L41.1821,75.013 L41.2004,75.0621 L41.2196,75.1108 L41.2397,75.1593 L41.2605,75.2073 L41.2823,75.255 L41.3048,75.3024 L41.3282,75.3493 L41.3523,75.3958 L41.3773,75.4419 L41.4031,75.4875 L41.4296,75.5327 L41.4569,75.5774 L41.485,75.6216 L41.5139,75.6654 L41.5435,75.7086 L41.5739,75.7513 L41.605,75.7935 L41.6368,75.8351 L41.6694,75.8762 L41.7027,75.9167 L41.7366,75.9566 L41.7713,75.996 L41.8066,76.0347 L41.8426,76.0728 L41.8792,76.1103 L41.9165,76.1471 L41.9544,76.1833 L41.993,76.2188 L42.0321,76.2536 L42.0719,76.2878 L42.1122,76.3212 L42.1531,76.354 L42.1946,76.386 L42.2366,76.4173 L42.2792,76.4479 L42.3223,76.4777 L42.3659,76.5068 L42.41,76.5351 L42.4546,76.5627 L42.4996,76.5895 L42.5451,76.6155 L42.5911,76.6407 L42.6375,76.6651 L42.6843,76.6886 L42.7315,76.7114 L42.7791,76.7334 L42.827,76.7545 L42.8753,76.7748 L42.924,76.7942 L42.973,76.8128 L43.0223,76.8305 L43.0719,76.8474 L43.1218,76.8634 L43.172,76.8786 L43.2224,76.8929 L43.2731,76.9063 L43.324,76.9188 L43.3751,76.9304 L43.4264,76.9412 L43.4779,76.951 L43.5295,76.96 L43.5813,76.968 L43.6332,76.9752 L43.6853,76.9815 L43.7374,76.9868 L43.7896,76.9913 L43.8419,76.9948 L43.8942,76.9974 L43.9466,76.9992 L43.999,77 L44.0514,76.9999 L44.1038,76.9989 L44.1562,76.997 L44.2085,76.9942 L44.2608,76.9904 L44.313,76.9858 L44.3651,76.9803 L44.4171,76.9738 L44.469,76.9665 L44.5208,76.9582 L44.5,76.56"/>
</g>
</g>
</svg>
