<?xml version="1.0" encoding="UTF-8" standalone="no"?>
<svg viewBox="-0.0219727 -13.4473 10.0488 13.4473"
 xmlns="http://www.w3.org/2000/svg" xmlns:xlink="http://www.w3.org/1999/xlink"  version="1.2" baseProfile="tiny">
<title>Qt SVG Document</title>
<desc>Generated with Qt</desc>
<defs>
</defs>
<g fill="none" stroke="black" stroke-width="1" fill-rule="evenodd" stroke-linecap="square" stroke-linejoin="bevel" >

<g fill="param(fill)" fill-opacity="param(fill-opacity)" stroke="param(outline)" stroke-opacity="param(outline-opacity) 1" stroke-width="param(outline-width) 0" transform="matrix(1,0,0,1,0,0)"
font-family="MS Shell Dlg 2" font-size="8.3" font-weight="400" font-style="normal" 
>
<path vector-effect="none" fill-rule="nonzero" d="M-0.0219727,0 L4.10156,-10.7373 L5.63232,-10.7373 L10.0269,0 L8.4082,0 L7.15576,-3.25195 L2.66602,-3.25195 L1.48682,0 L-0.0219727,0 M3.07617,-4.40918 L6.71631,-4.40918 L5.5957,-7.38281 C5.25391,-8.28613 5,-9.02832 4.83398,-9.60938 C4.69727,-8.9209 4.50439,-8.2373 4.25537,-7.55859 L3.07617,-4.40918 M4.86328,-12.6416 L4.03564,-11.3965 L2.52686,-11.3965 L4.10889,-13.4473 L5.51514,-13.4473 L7.16309,-11.3965 L5.66895,-11.3965 L4.86328,-12.6416"/>
</g>
</g>
</svg>
