<?xml version="1.0" encoding="UTF-8" standalone="no"?>
<svg viewBox="1.60498 -13.7305 13.7305 13.7305"
 xmlns="http://www.w3.org/2000/svg" xmlns:xlink="http://www.w3.org/1999/xlink"  version="1.2" baseProfile="tiny">
<title>Qt SVG Document</title>
<desc>Generated with Qt</desc>
<defs>
</defs>
<g fill="none" stroke="black" stroke-width="1" fill-rule="evenodd" stroke-linecap="square" stroke-linejoin="bevel" >

<g fill="param(fill)" fill-opacity="param(fill-opacity)" stroke="param(outline)" stroke-opacity="param(outline-opacity) 1" stroke-width="param(outline-width) 0" transform="matrix(1,0,0,1,0,0)"
font-family="MS Shell Dlg 2" font-size="8.3" font-weight="400" font-style="normal" 
>
<path vector-effect="none" fill-rule="nonzero" d="M15.3354,-6.86523 C15.3354,-4.96647 14.6659,-3.34757 13.3269,-2.00854 C11.9879,-0.669515 10.369,0 8.47021,0 C6.57145,0 4.95256,-0.669515 3.61353,-2.00854 C2.2745,-3.34757 1.60498,-4.96647 1.60498,-6.86523 C1.60498,-8.764 2.2745,-10.3829 3.61353,-11.7219 C4.95256,-13.061 6.57145,-13.7305 8.47021,-13.7305 C10.369,-13.7305 11.9879,-13.061 13.3269,-11.7219 C14.6659,-10.3829 15.3354,-8.764 15.3354,-6.86523 M11.8379,-2.52344 L4.12842,-10.2329 C3.36149,-9.18766 2.97803,-8.0651 2.97803,-6.86523 C2.97803,-5.34993 3.51457,-4.05575 4.58765,-2.98267 C5.66073,-1.90959 6.95182,-1.37305 8.46094,-1.37305 C9.69792,-1.37305 10.8236,-1.75651 11.8379,-2.52344 M5.10254,-11.207 L12.812,-3.49756 C13.5789,-4.53662 13.9624,-5.66227 13.9624,-6.87451 C13.9624,-8.38981 13.4274,-9.68245 12.3574,-10.7524 C11.2874,-11.8224 9.99479,-12.3574 8.47949,-12.3574 C7.27344,-12.3574 6.14779,-11.974 5.10254,-11.207 "/>
</g>
</g>
</svg>
